# xmcd CD database file generated by Grip 2.96
# 
# Track frame offsets:
#       150
#       25985
#       44898
#       68112
#       90288
#       116590
#       145117
#       166879
# 
# Disc length: 2463 seconds
# 
# Revision: 0
# Processed by: cddbd v1.4PL0 Copyright (c) Steve Scherf et al.
# Submitted via: Grip 2.96
# 
DISCID=67099d08
DTITLE=Sarah Vaughan - It's Crazy
DYEAR=1900
DGENRE=
TTITLE0=September Song
TTITLE1=He's My Guy
TTITLE2=I'm Glad There Is you
TTITLE3=It's Crazy
TTITLE4=Jim 
TTITLE5=April In Paris
TTITLE6=Embraceabel You
TTITLE7=Lullaby Of Birdland
EXTD=
EXTT0=
EXTT1=
EXTT2=
EXTT3=
EXTT4=
EXTT5=
EXTT6=
EXTT7=
PLAYORDER=
